<?xml version="1.0" encoding="UTF-8"?>
<svg width="143px" height="27px" viewBox="0 0 143 27" version="1.1" xmlns="http://www.w3.org/2000/svg" xmlns:xlink="http://www.w3.org/1999/xlink">
    <title>Group</title>
    <g id="Page-1" stroke="none" stroke-width="1" fill="none" fill-rule="evenodd">
        <g id="Group" fill="#FFFFFF" fill-rule="nonzero">
            <path d="M49.204,26 C50.212,26 50.68,25.784 50.68,25.784 L41.14,0.296 C41.14,0.296 40.6,0.08 39.664,0.08 C38.764,0.08 38.188,0.296 38.188,0.296 L28.648,25.784 C28.648,25.784 29.044,26 29.908,26 C30.772,26 31.204,25.784 31.204,25.784 L33.832,18.908 L45.316,18.908 L47.908,25.784 C47.908,25.784 48.34,26 49.204,26 Z M44.524,16.676 L34.624,16.676 L38.8,5.66 C39.304,4.256 39.52,3.176 39.52,3.176 L39.628,3.176 C39.628,3.176 39.63286,3.19949 39.642823,3.244283 L39.669625,3.361625 C39.680875,3.409775 39.694465,3.466745 39.710467,3.531887 L39.765781,3.751181 C39.88072,4.19579 40.0708,4.868 40.348,5.66 L44.524,16.676 Z M60.868,26.36 C64.144,26.36 65.8,25.28 65.8,25.28 C65.764,24.524 65.476,23.768 64.972,23.372 C64.972,23.372 63.568,24.056 61.48,24.056 C57.592,24.056 55.828,21.68 55.828,16.532 C55.828,11.42 57.484,8.9 61.336,8.9 C63.352,8.9 64.612,9.512 64.612,9.512 C65.152,9.044 65.404,8.324 65.404,7.568 C65.404,7.568 64,6.704 60.868,6.704 C55.828,6.704 53.128,10.124 53.128,16.532 C53.128,22.94 55.828,26.36 60.868,26.36 Z M76.456,26.36 C79.732,26.36 81.388,25.28 81.388,25.28 C81.352,24.524 81.064,23.768 80.56,23.372 C80.56,23.372 79.156,24.056 77.068,24.056 C73.18,24.056 71.416,21.68 71.416,16.532 C71.416,11.42 73.072,8.9 76.924,8.9 C78.94,8.9 80.2,9.512 80.2,9.512 C80.74,9.044 80.992,8.324 80.992,7.568 C80.992,7.568 79.588,6.704 76.456,6.704 C71.416,6.704 68.716,10.124 68.716,16.532 C68.716,22.94 71.416,26.36 76.456,26.36 Z M92.08,26.36 C95.932,26.36 97.912,24.776 97.912,24.776 C97.876,24.02 97.48,23.264 96.976,22.868 L96.9525599,22.8841719 C96.7424495,23.0262117 95.1313103,24.056 92.584,24.056 C89.092,24.056 87.256,22.292 87.004,17.36 L98.416,17.36 C98.416,17.36 98.812,15.884 98.812,13.652 C98.812,9.296 96.4,6.704 92.044,6.704 C87.436,6.704 84.304,9.62 84.304,16.424 C84.304,22.94 86.896,26.36 92.08,26.36 Z M96.148,15.416 L87.004,15.416 C87.22,10.736 89.164,8.828 92.044,8.828 C95.14,8.828 96.256,10.916 96.256,13.364 C96.256,14.48 96.184,15.164 96.148,15.416 Z M108.424,26.36 C112.816,26.36 115.012,24.272 115.012,20.816 C115.012,17.108 112.276,16.172 109.72,15.38 C107.452,14.696 105.22,14.12 105.22,12.068 C105.22,10.016 106.696,8.9 109.504,8.9 C111.628,8.9 113.356,9.512 113.356,9.512 C113.86,9.08 114.112,8.288 114.076,7.604 C114.076,7.604 112.42,6.704 109.216,6.704 C104.824,6.704 102.7,8.936 102.7,12.176 C102.7,15.596 105.4,16.64 107.92,17.36 L108.126022,17.4185685 L108.126022,17.4185685 L108.536003,17.5346717 C110.575372,18.1151074 112.42,18.728 112.42,20.888 C112.42,23.12 110.728,24.092 108.28,24.092 C105.724,24.092 103.384,23.192 103.384,23.192 C102.88,23.624 102.628,24.38 102.664,25.136 C102.664,25.136 104.824,26.36 108.424,26.36 Z M120.988,3.14 C121.96,3.14 122.464,2.96 122.464,2.96 L122.464,0.332 C122.464,0.332 121.96,0.152 120.988,0.152 C119.98,0.152 119.512,0.332 119.512,0.332 L119.512,2.96 C119.512,2.96 119.98,3.14 120.988,3.14 Z M120.988,26 C121.852,26 122.284,25.82 122.284,25.82 L122.284,7.244 C122.284,7.244 121.852,7.064 120.988,7.064 C120.2392,7.064 119.85904,7.1792 119.736928,7.22528 L119.696864,7.24170667 C119.6936,7.2432 119.692,7.244 119.692,7.244 L119.692,25.82 L119.696864,25.8222933 L119.736928,25.83872 C119.85904,25.8848 120.2392,26 120.988,26 Z M135.028,26.36 C139.852,26.36 142.732,23.66 142.732,16.532 C142.732,9.404 139.852,6.704 135.028,6.704 C130.204,6.704 127.324,9.404 127.324,16.532 C127.324,23.66 130.204,26.36 135.028,26.36 Z M135.028,24.308 C131.932,24.308 129.988,22.544 129.988,16.532 C129.988,10.52 131.932,8.756 135.028,8.756 C138.124,8.756 140.068,10.52 140.068,16.532 C140.068,22.544 138.124,24.308 135.028,24.308 Z" id="Accesio"></path>
            <path d="M13,0 C11.3502394,0 10,1.35026561 10,3 C10,4.64975707 11.35027,6 13,6 C14.64973,6 16,4.64975707 16,3 C16,1.35026561 14.6497595,0 13,0 Z M10.3409085,8 C10.2314963,8 10.1242226,8.02992279 10.0310358,8.08632291 L4.99386087,11.1329938 C4.46239786,10.6326238 3.74399952,10.3226426 2.95454582,10.3226426 C1.32978202,10.3226426 0,11.6293588 0,13.2258663 C0,14.8223957 1.32981217,16.1291119 2.95454582,16.129079 C4.57927947,16.1291119 5.90909053,14.8223957 5.90909053,13.2258663 C5.90909053,12.8222543 5.82346363,12.4374057 5.67018611,12.0872751 L10.3409085,9.26230934 L10.3409085,15.2224086 C10.3240689,15.2473169 10.3091724,15.273871 10.2964759,15.3011932 L7.94669594,20.2071699 C7.85918185,20.1994889 7.77128474,20.1935636 7.68182093,20.1935636 C6.05705824,20.1935636 4.72727622,21.5002688 4.72727622,23.0967763 C4.72727622,24.6933168 6.05708727,26 7.68182093,26 C9.30655566,26 10.6363671,24.6933168 10.6363671,23.0967763 C10.6363671,22.0005291 10.0093834,21.040575 9.09043041,20.5468324 L11.2059133,16.129057 L14.6931047,16.129057 L16.8316925,20.5938838 C15.9563495,21.0993342 15.3636377,22.0325148 15.3636377,23.0967763 C15.3636377,24.6933168 16.6934499,26 18.3181835,26 C19.9429172,26 21.2727282,24.6933168 21.2727282,23.0967763 C21.2727282,21.5002688 19.9429462,20.1935636 18.3181835,20.1935636 C18.1958056,20.1935636 18.0761178,20.2034391 17.9575221,20.2179232 L15.659093,15.4179986 L15.659093,9.26228742 L20.329815,12.0872532 C20.176533,12.4373838 20.0909106,12.8222323 20.0909106,13.2258443 C20.0909106,14.8223738 21.4207217,16.12909 23.0454553,16.129057 C24.670189,16.12909 26,14.8223738 26,13.2258443 C26,11.6293368 24.6702191,10.3226206 23.0454553,10.3226206 C22.256149,10.3226206 21.5381348,10.6327774 21.0067008,11.132917 L15.9689623,8.0862461 C15.8757755,8.02984598 15.7684962,8 15.6590896,8 L10.3409085,8 Z M11,9 L14,9 L14,15 L11,15 L11,9 Z" id="Shape"></path>
        </g>
    </g>
</svg>