<?xml version="1.0" encoding="UTF-8"?>
<svg width="138px" height="27px" viewBox="0 0 138 27" version="1.1" xmlns="http://www.w3.org/2000/svg" xmlns:xlink="http://www.w3.org/1999/xlink">
    <title>Group</title>
    <g id="Page-1" stroke="none" stroke-width="1" fill="none" fill-rule="evenodd">
        <g id="Group" fill="#FFFFFF" fill-rule="nonzero">
            <path d="M44.204,26 C45.212,26 45.68,25.784 45.68,25.784 L36.14,0.296 C36.14,0.296 35.6,0.08 34.664,0.08 C33.764,0.08 33.188,0.296 33.188,0.296 L23.648,25.784 C23.648,25.784 24.044,26 24.908,26 C25.772,26 26.204,25.784 26.204,25.784 L28.832,18.908 L40.316,18.908 L42.908,25.784 C42.908,25.784 43.34,26 44.204,26 Z M39.524,16.676 L29.624,16.676 L33.8,5.66 C34.304,4.256 34.52,3.176 34.52,3.176 L34.628,3.176 C34.628,3.176 34.63286,3.19949 34.642823,3.244283 L34.669625,3.361625 C34.680875,3.409775 34.694465,3.466745 34.710467,3.531887 L34.765781,3.751181 C34.88072,4.19579 35.0708,4.868 35.348,5.66 L39.524,16.676 Z M55.868,26.36 C59.144,26.36 60.8,25.28 60.8,25.28 C60.764,24.524 60.476,23.768 59.972,23.372 C59.972,23.372 58.568,24.056 56.48,24.056 C52.592,24.056 50.828,21.68 50.828,16.532 C50.828,11.42 52.484,8.9 56.336,8.9 C58.352,8.9 59.612,9.512 59.612,9.512 C60.152,9.044 60.404,8.324 60.404,7.568 C60.404,7.568 59,6.704 55.868,6.704 C50.828,6.704 48.128,10.124 48.128,16.532 C48.128,22.94 50.828,26.36 55.868,26.36 Z M71.456,26.36 C74.732,26.36 76.388,25.28 76.388,25.28 C76.352,24.524 76.064,23.768 75.56,23.372 C75.56,23.372 74.156,24.056 72.068,24.056 C68.18,24.056 66.416,21.68 66.416,16.532 C66.416,11.42 68.072,8.9 71.924,8.9 C73.94,8.9 75.2,9.512 75.2,9.512 C75.74,9.044 75.992,8.324 75.992,7.568 C75.992,7.568 74.588,6.704 71.456,6.704 C66.416,6.704 63.716,10.124 63.716,16.532 C63.716,22.94 66.416,26.36 71.456,26.36 Z M87.08,26.36 C90.932,26.36 92.912,24.776 92.912,24.776 C92.876,24.02 92.48,23.264 91.976,22.868 L91.9525599,22.8841719 C91.7424495,23.0262117 90.1313103,24.056 87.584,24.056 C84.092,24.056 82.256,22.292 82.004,17.36 L93.416,17.36 C93.416,17.36 93.812,15.884 93.812,13.652 C93.812,9.296 91.4,6.704 87.044,6.704 C82.436,6.704 79.304,9.62 79.304,16.424 C79.304,22.94 81.896,26.36 87.08,26.36 Z M91.148,15.416 L82.004,15.416 C82.22,10.736 84.164,8.828 87.044,8.828 C90.14,8.828 91.256,10.916 91.256,13.364 C91.256,14.48 91.184,15.164 91.148,15.416 Z M103.424,26.36 C107.816,26.36 110.012,24.272 110.012,20.816 C110.012,17.108 107.276,16.172 104.72,15.38 C102.452,14.696 100.22,14.12 100.22,12.068 C100.22,10.016 101.696,8.9 104.504,8.9 C106.628,8.9 108.356,9.512 108.356,9.512 C108.86,9.08 109.112,8.288 109.076,7.604 C109.076,7.604 107.42,6.704 104.216,6.704 C99.824,6.704 97.7,8.936 97.7,12.176 C97.7,15.596 100.4,16.64 102.92,17.36 L103.126022,17.4185685 L103.126022,17.4185685 L103.536003,17.5346717 C105.575372,18.1151074 107.42,18.728 107.42,20.888 C107.42,23.12 105.728,24.092 103.28,24.092 C100.724,24.092 98.384,23.192 98.384,23.192 C97.88,23.624 97.628,24.38 97.664,25.136 C97.664,25.136 99.824,26.36 103.424,26.36 Z M115.988,3.14 C116.96,3.14 117.464,2.96 117.464,2.96 L117.464,0.332 C117.464,0.332 116.96,0.152 115.988,0.152 C114.98,0.152 114.512,0.332 114.512,0.332 L114.512,2.96 C114.512,2.96 114.98,3.14 115.988,3.14 Z M115.988,26 C116.852,26 117.284,25.82 117.284,25.82 L117.284,7.244 C117.284,7.244 116.852,7.064 115.988,7.064 C115.2392,7.064 114.85904,7.1792 114.736928,7.22528 L114.696864,7.24170667 C114.6936,7.2432 114.692,7.244 114.692,7.244 L114.692,25.82 L114.696864,25.8222933 L114.736928,25.83872 C114.85904,25.8848 115.2392,26 115.988,26 Z M130.028,26.36 C134.852,26.36 137.732,23.66 137.732,16.532 C137.732,9.404 134.852,6.704 130.028,6.704 C125.204,6.704 122.324,9.404 122.324,16.532 C122.324,23.66 125.204,26.36 130.028,26.36 Z M130.028,24.308 C126.932,24.308 124.988,22.544 124.988,16.532 C124.988,10.52 126.932,8.756 130.028,8.756 C133.124,8.756 135.068,10.52 135.068,16.532 C135.068,22.544 133.124,24.308 130.028,24.308 Z" id="Accesio"></path>
            <path d="M13,0 C11.3502394,0 10,1.35026561 10,3 C10,4.64975707 11.35027,6 13,6 C14.64973,6 16,4.64975707 16,3 C16,1.35026561 14.6497595,0 13,0 Z M10.3409085,8 C10.2314963,8 10.1242226,8.02992279 10.0310358,8.08632291 L4.99386087,11.1329938 C4.46239786,10.6326238 3.74399952,10.3226426 2.95454582,10.3226426 C1.32978202,10.3226426 0,11.6293588 0,13.2258663 C0,14.8223957 1.32981217,16.1291119 2.95454582,16.129079 C4.57927947,16.1291119 5.90909053,14.8223957 5.90909053,13.2258663 C5.90909053,12.8222543 5.82346363,12.4374057 5.67018611,12.0872751 L10.3409085,9.26230934 L10.3409085,15.2224086 C10.3240689,15.2473169 10.3091724,15.273871 10.2964759,15.3011932 L7.94669594,20.2071699 C7.85918185,20.1994889 7.77128474,20.1935636 7.68182093,20.1935636 C6.05705824,20.1935636 4.72727622,21.5002688 4.72727622,23.0967763 C4.72727622,24.6933168 6.05708727,26 7.68182093,26 C9.30655566,26 10.6363671,24.6933168 10.6363671,23.0967763 C10.6363671,22.0005291 10.0093834,21.040575 9.09043041,20.5468324 L11.2059133,16.129057 L14.6931047,16.129057 L16.8316925,20.5938838 C15.9563495,21.0993342 15.3636377,22.0325148 15.3636377,23.0967763 C15.3636377,24.6933168 16.6934499,26 18.3181835,26 C19.9429172,26 21.2727282,24.6933168 21.2727282,23.0967763 C21.2727282,21.5002688 19.9429462,20.1935636 18.3181835,20.1935636 C18.1958056,20.1935636 18.0761178,20.2034391 17.9575221,20.2179232 L15.659093,15.4179986 L15.659093,9.26228742 L20.329815,12.0872532 C20.176533,12.4373838 20.0909106,12.8222323 20.0909106,13.2258443 C20.0909106,14.8223738 21.4207217,16.12909 23.0454553,16.129057 C24.670189,16.12909 26,14.8223738 26,13.2258443 C26,11.6293368 24.6702191,10.3226206 23.0454553,10.3226206 C22.256149,10.3226206 21.5381348,10.6327774 21.0067008,11.132917 L15.9689623,8.0862461 C15.8757755,8.02984598 15.7684962,8 15.6590896,8 L10.3409085,8 Z M11,9 L14,9 L14,15 L11,15 L11,9 Z" id="Shape"></path>
        </g>
    </g>
</svg>