<svg height='100px' width='100px'  fill="#00505c" xmlns="http://www.w3.org/2000/svg" version="1.1" viewBox="0 0 32 32" x="0px" y="0px"><title>plus-circle</title><path d="M8 14.857c-0.005 0-0.010 0-0.016 0-0.631 0-1.143 0.511-1.143 1.143s0.511 1.143 1.143 1.143c0.006 0 0.011 0 0.017 0h15.998c0.005 0 0.010 0 0.016 0 0.631 0 1.143-0.511 1.143-1.143s-0.511-1.143-1.143-1.143c-0.006 0-0.011 0-0.017 0z"></path><path d="M17.143 8c0-0.005 0-0.010 0-0.016 0-0.631-0.511-1.143-1.143-1.143s-1.143 0.511-1.143 1.143c0 0.006 0 0.011 0 0.017v-0.001 15.999c0 0.005 0 0.010 0 0.016 0 0.631 0.511 1.143 1.143 1.143s1.143-0.511 1.143-1.143c0-0.006 0-0.011 0-0.017v0.001z"></path><path d="M16 0c-8.823 0-15.999 7.177-15.999 15.999s7.177 15.999 15.999 15.999c8.823 0 15.999-7.177 15.999-15.999s-7.177-15.999-15.999-15.999zM16 2.286c7.588 0 13.714 6.127 13.714 13.714s-6.126 13.714-13.714 13.714c-7.588 0-13.714-6.126-13.714-13.714s6.126-13.714 13.714-13.714z"></path></svg>