<?xml version="1.0" encoding="utf-8"?><svg width="200" height="100" viewBox="0 0 200 100" xmlns="http://www.w3.org/2000/svg" xmlns:xlink="http://www.w3.org/1999/xlink"><view id="icon_plus" viewBox="0 0 100 100"/><svg height="100" width="100" fill="#00505c" viewBox="0 0 32 32" xmlns="http://www.w3.org/2000/svg"><title>plus-circle</title><path d="M8 14.857h-.016a1.143 1.143 0 1 0 0 2.286h16.031a1.143 1.143 0 1 0 0-2.286h-.017z"/><path d="M17.143 8v-.016a1.143 1.143 0 1 0-2.286 0v.017V8v16.015a1.143 1.143 0 1 0 2.286 0v-.017.001z"/><path d="M16 0C7.177 0 .001 7.177.001 15.999S7.178 31.998 16 31.998c8.823 0 15.999-7.177 15.999-15.999S24.822 0 16 0zm0 2.286c7.588 0 13.714 6.127 13.714 13.714S23.588 29.714 16 29.714 2.286 23.588 2.286 16 8.412 2.286 16 2.286z"/></svg><view id="icon_timeline" viewBox="100 0 100 100"/><svg height="100" width="100" viewBox="0 0 100 100" x="100" xmlns="http://www.w3.org/2000/svg"><path d="M64.3 49.1h-6c.1.5.2.9.2 1.4s-.1 1-.2 1.4h6c-.1-.5-.2-.9-.2-1.4s.1-.9.2-1.4zM20 50.5c0 3.3-2.7 6-6 6s-6-2.7-6-6 2.7-6 6-6 6 2.7 6 6zm-6.1-2.2c-1.3 0-2.3 1-2.3 2.3 0 1.3 1 2.3 2.3 2.3s2.3-1 2.3-2.3c0-1.3-1-2.3-2.3-2.3zM38.9 50.5c0 3.3-2.7 6-6 6s-6-2.7-6-6 2.7-6 6-6 6 2.7 6 6zm-6-2.2c-1.3 0-2.3 1-2.3 2.3 0 1.3 1 2.3 2.3 2.3 1.3 0 2.3-1 2.3-2.3-.1-1.3-1.1-2.3-2.3-2.3zM57.8 50.5c0 3.3-2.7 6-6 6s-6-2.7-6-6 2.7-6 6-6 6 2.7 6 6zm-6-2.2c-1.3 0-2.3 1-2.3 2.3 0 1.3 1 2.3 2.3 2.3 1.3 0 2.3-1 2.3-2.3 0-1.3-1.1-2.3-2.3-2.3zM76.8 50.5c0 3.3-2.7 6-6 6s-6-2.7-6-6 2.7-6 6-6 6 2.7 6 6zm-6.1-2.2c-1.3 0-2.3 1-2.3 2.3 0 1.3 1 2.3 2.3 2.3 1.3 0 2.3-1 2.3-2.3 0-1.3-1-2.3-2.3-2.3zM7.3 50.5c0-.5.1-1 .2-1.4h-6v2.8h5.9c0-.4-.1-.9-.1-1.4zM26.4 51.9c-.1-.5-.2-.9-.2-1.4s.1-1 .2-1.4h-6c.1.5.2.9.2 1.4s-.1 1-.2 1.4h6zM45.3 49.1h-6c.1.5.2.9.2 1.4s-.1 1-.2 1.4h6c-.1-.5-.2-.9-.2-1.4s.1-.9.2-1.4zM85.3 42l13.1 7.6c.7.4.7 1.4 0 1.8L85.3 59c-.7.4-1.5-.1-1.5-.9V42.8c0-.7.8-1.2 1.5-.8zM77.2 49.1c.1.5.2.9.2 1.4s-.1 1-.2 1.4h5.7v-2.8h-5.7z"/></svg></svg>